<svg id="Layer_1" data-name="Layer 1" xmlns="http://www.w3.org/2000/svg" xmlns:xlink="http://www.w3.org/1999/xlink" viewBox="0 0 365.51 174.67">
  <defs>
    <style>
      .cls-1 {
        fill: url(#linear-gradient);
      }

      .cls-2 {
        fill: url(#linear-gradient-2);
      }

      .cls-3 {
        fill: url(#linear-gradient-3);
      }
    </style>
    <linearGradient id="linear-gradient" x1="73.75" y1="250" x2="434.6" y2="250" gradientUnits="userSpaceOnUse">
      <stop offset="0" stop-color="#3fd6cc"/>
      <stop offset="1" stop-color="#1683ab"/>
    </linearGradient>
    <linearGradient id="linear-gradient-2" x1="78.88" y1="253.04" x2="159.67" y2="253.04" gradientUnits="userSpaceOnUse">
      <stop offset="0" stop-color="#ebb24f"/>
      <stop offset="1" stop-color="#ffdc30"/>
    </linearGradient>
    <linearGradient id="linear-gradient-3" x1="67.24" y1="197.96" x2="117.05" y2="197.96" xlink:href="#linear-gradient-2"/>
  </defs>
  <path class="cls-1" d="M91.14,293.43H79.72a6,6,0,0,1-6-6h0a6,6,0,0,1,6-6H91.14a37.63,37.63,0,0,0,37.63-37.63V168.64a6,6,0,0,1,6-6h0a6,6,0,0,1,6,6v75.22A49.57,49.57,0,0,1,91.14,293.43ZM79.72,320.18h24.85c4.83,0,9.88,0,14.78-.05,15.41,0,31.35,0,44.89-1,7.29-.53,40.38-9.48,57.19-41A84.56,84.56,0,0,0,231,235.49c-.62-15.32-5.52-28.54-13.8-37.22-3.88-4.06-14.18-14.86-29.28-16.76a94.25,94.25,0,0,0-10.72-.67c-7.12-.09-9.55-2.59-10.1-12.51a6,6,0,0,0-6-5.66h0a6,6,0,0,0-6,6.31A34.31,34.31,0,0,0,158,181.89c3.39,7.11,9.81,10.78,19.07,10.9a83,83,0,0,1,9.38.57c10.88,1.37,18.76,9.63,22.13,13.16,13,13.66,14.1,43.88,2.32,66-14.15,26.53-42.82,34.37-47.51,34.71-13.12.94-28.84,1-44,1-4.91,0-10,0-14.8.05H79.72a6,6,0,0,0-6,6h0A6,6,0,0,0,79.72,320.18Zm194-93.19a26.9,26.9,0,0,0,4.82-15.73,29.2,29.2,0,0,0-3.28-14.78q-4.27-7.59-12.58-7.59a18.57,18.57,0,0,0-16.19,8.42,26.9,26.9,0,0,0-4.73,16.52q.3,9.67,5.9,15.4a16.15,16.15,0,0,0,12,5.14A16.52,16.52,0,0,0,273.67,227Zm-2.9-13.58a13.39,13.39,0,0,1-3.74,9.43A10.07,10.07,0,0,1,259.6,226a8.74,8.74,0,0,1-6.43-2.78q-3.28-3.36-3.28-9.38a21.09,21.09,0,0,1,2.7-10.71q3.41-5.85,9.5-5.81Q271.35,197.36,270.77,213.41Zm46,18.64q6.39-2.82,6.4-5.85a4,4,0,0,0-1.13-2.8,3.46,3.46,0,0,0-2.65-1.23,4.54,4.54,0,0,0-1.79.67l-4.81,2.57a12.44,12.44,0,0,1-5.31,1.33,13.41,13.41,0,0,1-9-3,10.69,10.69,0,0,1-3.73-8.63q0-5.07,3.77-12,4.15-7.54,8.39-7.55,5.55,0,8,1.95c.55.47,1.13.95,1.72,1.43a3.18,3.18,0,0,0,2.1.73,3.23,3.23,0,0,0,2.57-1.23,4.21,4.21,0,0,0,1-2.8q0-3.52-6.35-6a25.73,25.73,0,0,0-9.09-1.91q-7.8,0-14,10-5.61,9-5.6,17.39,0,8.84,6,14.23a20.37,20.37,0,0,0,14.2,5.15Q311.19,234.54,316.79,232.05Zm-62.54,53.3q.41-5.84.41-9.73a4.13,4.13,0,0,0-1.14-3,4.27,4.27,0,0,0-5.85,0,4.13,4.13,0,0,0-1.14,3q0,3.9-.42,9.73t-.41,9.73c0,1.66.05,4.15.14,7.45s.15,5.79.15,7.45a4.08,4.08,0,0,0,1.14,3,4.29,4.29,0,0,0,5.87,0,4.11,4.11,0,0,0,1.12-3q0-2.49-.14-7.45c-.1-3.3-.15-5.79-.15-7.45Q253.83,291.18,254.25,285.35ZM255.39,260a4.77,4.77,0,0,0,0-6.81,4.73,4.73,0,0,0-3.43-1.41,4.78,4.78,0,0,0-3.44,1.41,4.72,4.72,0,0,0,0,6.81,4.78,4.78,0,0,0,3.44,1.41A4.73,4.73,0,0,0,255.39,260Zm47.75,28.26a47.91,47.91,0,0,0,.87-7.88q0-4.82-4.44-4.94a8.23,8.23,0,0,0-4-3,18.48,18.48,0,0,0-6.48-1q-11.46,0-18.09,7.05-6.43,6.86-6.44,18,0,8.19,4.71,13.31A15.87,15.87,0,0,0,281.52,315a12.41,12.41,0,0,0,7.07-2.07,17.14,17.14,0,0,0,5.34-6.23q-.14,10.5-2.12,15.57-3,7.59-11,7.72a34.53,34.53,0,0,1-7.72-.65,28.59,28.59,0,0,0-5-.73c-2.41,0-3.61,1.24-3.61,3.7,0,2.19,1.74,3.62,5.23,4.32a48.89,48.89,0,0,0,9.25.74q9.42,0,14.41-3.86c2.73-2.13,4.73-5.43,6-9.92a58.59,58.59,0,0,0,1.7-13.57L302,296Q302.19,294,303.14,288.23Zm-10.75-9.54a11.88,11.88,0,0,1,3.44,1.91q-1,9.58-1.86,14.07a16.9,16.9,0,0,1-4.07,8.63Q286,308,281.76,308q-4.56,0-6.84-3c-1.53-2-2.29-5-2.29-9.05q0-7.54,3.86-12.45,4.32-5.43,12.2-5.43A11,11,0,0,1,292.39,278.69ZM344.73,313q7.42-3.31,7.43-7.93a3.47,3.47,0,0,0-1.15-2.55,3.64,3.64,0,0,0-2.59-1.1q-1.62,0-3,2.22t-6.31,3.59a25.41,25.41,0,0,1-6.72,1.08,17.76,17.76,0,0,1-8.07-1.74,15,15,0,0,1-5.79-5.19l15.85-7.51a65.34,65.34,0,0,0,8.8-4.65q4.68-3.41,4.69-7.55a9.37,9.37,0,0,0-5.36-8.8,23.78,23.78,0,0,0-11.24-2.33,17.76,17.76,0,0,0-15.19,8q-5.24,7.31-5.23,18.1,0,9.33,6.35,14.52,5.81,4.69,15.19,4.69A30.4,30.4,0,0,0,344.73,313Zm-3.49-31.67a54.35,54.35,0,0,1-10.71,6.35l-12.74,6.06q1.66-7.87,5-11.8a10.63,10.63,0,0,1,8.43-3.93Q337.67,278,341.24,281.34Zm49.24-.53a4.17,4.17,0,0,0,1.15-3,18.14,18.14,0,0,0-.52-3.52,17.46,17.46,0,0,1-.52-3.53,4.13,4.13,0,0,0-1.14-3,4,4,0,0,0-2.93-1.16,9.18,9.18,0,0,0-3.69.74,61.39,61.39,0,0,1-7.85,2.64,63.61,63.61,0,0,0-8,2.68q-8.17,3.69-8.17,12.37a8,8,0,0,0,3.36,7q2.32,1.62,7.84,2.82l4.32,1q7.89,2,7.89,7.63,0,2.63-3.86,3.82a20.48,20.48,0,0,1-6.15.83,26.7,26.7,0,0,1-4.69-.5c-2.32-.41-3.82-.94-4.48-1.57-1.36-1.33-2.46-2-3.32-2a4.19,4.19,0,0,0-3,1.25,3.89,3.89,0,0,0-1.3,2.9q0,4.15,6.39,6.48a29.6,29.6,0,0,0,10.37,1.83q7.44,0,12.29-2.83a11.13,11.13,0,0,0,5.85-10.21,14.11,14.11,0,0,0-6.76-12.61q-4.65-3-14.2-4.69a13.8,13.8,0,0,1-2.45-.67q0-3.9,6.73-6.56,6.46-2.12,9.58-2.9a14.57,14.57,0,0,0,1.08,4.48,3.41,3.41,0,0,0,3.2,1.54A3.92,3.92,0,0,0,390.48,280.81Zm41.13-3.43a4.13,4.13,0,0,0,1.15-3q0-3.08-2.54-3.9a23.49,23.49,0,0,0-5.64-.41q-.75,0-5.89.66l0-2.57.08-2.41q0-2.16-.12-3.69-.63-6.1-4.36-6.11a4.1,4.1,0,0,0-2.95,1.15,3.8,3.8,0,0,0-1.2,2.88q0,1.57.18,5.13c.13,2.36.19,4.25.19,5.66l-8.71-.7a3.75,3.75,0,0,0-2.87,1.2,4.3,4.3,0,0,0-1.12,3q0,3.61,3.7,4.11,6.18.59,9.21.7l.83,24.24c0,1.05,0,2.63-.13,4.73s-.12,3.68-.12,4.73a3.47,3.47,0,0,0,1.22,2.7,4.23,4.23,0,0,0,2.89,1.08q4.51,0,4.36-9.09l0-2.11,0-1.83L418.94,279q4.68-.61,5.64-.62c.58,0,1.27,0,2.05.08s1.48.08,2.06.08A3.87,3.87,0,0,0,431.61,277.38ZM179.68,208.25a3.7,3.7,0,0,0,2.45,4.53c.56.18,1.12.37,1.67.57a42,42,0,0,1,5,2.2,33.12,33.12,0,0,1,8.69,6.61,27.1,27.1,0,0,1,5.67,9.49,29.76,29.76,0,0,1,1.5,11.34l1,.13a31.46,31.46,0,0,0,.18-12.16,30.79,30.79,0,0,0-4.8-11.57,38.22,38.22,0,0,0-8.88-9.11,48.66,48.66,0,0,0-7.31-4.39,3.71,3.71,0,0,0-5.17,2.36Z" transform="translate(-67.24 -162.67)"/>
  <path class="cls-2" d="M121.93,214.21l8.2,15a32.56,32.56,0,0,0,13,13l15,8.2a3,3,0,0,1,0,5.31l-15,8.2a32.56,32.56,0,0,0-13,13l-8.2,15a3,3,0,0,1-5.31,0l-8.2-15a32.56,32.56,0,0,0-13-13l-15-8.2a3,3,0,0,1,0-5.31l15-8.2a32.56,32.56,0,0,0,13-13l8.2-15A3,3,0,0,1,121.93,214.21Z" transform="translate(-67.24 -162.67)"/>
  <path class="cls-3" d="M93.78,174l5,9.24a20.19,20.19,0,0,0,8,8l9.25,5a1.87,1.87,0,0,1,0,3.27l-9.25,5.06a20.19,20.19,0,0,0-8,8l-5,9.24a1.87,1.87,0,0,1-3.27,0l-5.05-9.24a20.15,20.15,0,0,0-8-8l-9.24-5.06a1.87,1.87,0,0,1,0-3.27l9.24-5a20.15,20.15,0,0,0,8-8L90.51,174A1.87,1.87,0,0,1,93.78,174Z" transform="translate(-67.24 -162.67)"/>
</svg>
